<?xml version="1.0" encoding="UTF-8"?>
<svg width="337px" height="53px" viewBox="0 0 337 53" version="1.1" xmlns="http://www.w3.org/2000/svg" xmlns:xlink="http://www.w3.org/1999/xlink">
    <!-- Generator: Sketch 43.1 (39012) - http://www.bohemiancoding.com/sketch -->
    <title>Sync to Slides</title>
    <desc>Created with Sketch.</desc>
    <defs></defs>
    <g id="Page-1" stroke="none" stroke-width="1" fill="none" fill-rule="evenodd">
        <g id="Artboard" transform="translate(-263.000000, -909.000000)" fill="#8D8D8D">
            <path d="M290.27,939.495 C290.27,942.941684 289.005013,945.70999 286.475,947.8 C283.908321,949.853344 280.791685,950.88 277.125,950.88 C273.86165,950.88 270.983346,949.926676 268.49,948.02 C265.996654,946.113324 264.273338,943.510017 263.32,940.21 L268.16,938.23 C268.490002,939.403339 268.94833,940.466662 269.535,941.42 C270.12167,942.373338 270.809163,943.189163 271.5975,943.8675 C272.385837,944.545837 273.256662,945.077498 274.21,945.4625 C275.163338,945.847502 276.171661,946.04 277.235,946.04 C279.545012,946.04 281.433326,945.444173 282.9,944.2525 C284.366674,943.060827 285.1,941.47501 285.1,939.495 C285.1,937.844992 284.495006,936.433339 283.285,935.26 C282.148328,934.123328 280.021682,933.023339 276.905,931.96 C273.751651,930.823328 271.790004,930.053335 271.02,929.65 C266.839979,927.523323 264.75,924.388354 264.75,920.245 C264.75,917.348319 265.904988,914.873344 268.215,912.82 C270.561678,910.766656 273.439983,909.74 276.85,909.74 C279.856682,909.74 282.459989,910.509992 284.66,912.05 C286.860011,913.553341 288.326663,915.441655 289.06,917.715 L284.33,919.695 C283.889998,918.228326 283.019173,917.009172 281.7175,916.0375 C280.415827,915.065828 278.830009,914.58 276.96,914.58 C274.97999,914.58 273.311673,915.129994 271.955,916.23 C270.598327,917.256672 269.92,918.594992 269.92,920.245 C269.92,921.601673 270.451661,922.774995 271.515,923.765 C272.688339,924.755005 275.236647,925.928327 279.16,927.285 C283.156687,928.641673 286.007491,930.300824 287.7125,932.2625 C289.417509,934.224176 290.27,936.634986 290.27,939.495 Z M319.344375,923.05 L302.459375,961.88 L297.234375,961.88 L303.504375,948.295 L292.394375,923.05 L297.894375,923.05 L305.924375,942.41 L306.034375,942.41 L313.844375,923.05 L319.344375,923.05 Z M323.50375,923.05 L328.34375,923.05 L328.34375,926.79 L328.56375,926.79 C329.333754,925.469993 330.516242,924.370004 332.11125,923.49 C333.706258,922.609996 335.365408,922.17 337.08875,922.17 C340.388766,922.17 342.927908,923.114157 344.70625,925.0025 C346.484592,926.890843 347.37375,929.576649 347.37375,933.06 L347.37375,950 L342.31375,950 L342.31375,933.39 C342.203749,928.989978 339.985438,926.79 335.65875,926.79 C333.642073,926.79 331.955423,927.605825 330.59875,929.2375 C329.242077,930.869175 328.56375,932.821655 328.56375,935.095 L328.56375,950 L323.50375,950 L323.50375,923.05 Z M366.493125,950.88 C362.496438,950.88 359.178138,949.523347 356.538125,946.81 C353.934779,944.023319 352.633125,940.59502 352.633125,936.525 C352.633125,932.381646 353.934779,928.953347 356.538125,926.24 C359.178138,923.526653 362.496438,922.17 366.493125,922.17 C369.243139,922.17 371.644781,922.857493 373.698125,924.2325 C375.751469,925.607507 377.291453,927.504988 378.318125,929.925 L373.698125,931.85 C372.268118,928.47665 369.756476,926.79 366.163125,926.79 C363.853113,926.79 361.8548,927.724991 360.168125,929.595 C358.518117,931.465009 357.693125,933.774986 357.693125,936.525 C357.693125,939.275014 358.518117,941.584991 360.168125,943.455 C361.8548,945.325009 363.853113,946.26 366.163125,946.26 C369.866477,946.26 372.469784,944.57335 373.973125,941.2 L378.483125,943.125 C377.49312,945.545012 375.943969,947.442493 373.835625,948.8175 C371.727281,950.192507 369.279806,950.88 366.493125,950.88 Z M407.371875,950.44 C405.171864,950.44 403.347716,949.761673 401.899375,948.405 C400.451034,947.048327 399.708542,945.160012 399.671875,942.74 L399.671875,927.67 L394.941875,927.67 L394.941875,923.05 L399.671875,923.05 L399.671875,914.8 L404.731875,914.8 L404.731875,923.05 L411.331875,923.05 L411.331875,927.67 L404.731875,927.67 L404.731875,941.09 C404.731875,942.886676 405.080205,944.10583 405.776875,944.7475 C406.473545,945.38917 407.261871,945.71 408.141875,945.71 C408.54521,945.71 408.939373,945.664167 409.324375,945.5725 C409.709377,945.480833 410.066873,945.361667 410.396875,945.215 L411.991875,949.725 C410.671868,950.201669 409.131884,950.44 407.371875,950.44 Z M415.21625,936.525 C415.21625,932.381646 416.517904,928.953347 419.12125,926.24 C421.761263,923.526653 425.079563,922.17 429.07625,922.17 C433.072937,922.17 436.372904,923.526653 438.97625,926.24 C441.616263,928.953347 442.93625,932.381646 442.93625,936.525 C442.93625,940.705021 441.616263,944.13332 438.97625,946.81 C436.372904,949.523347 433.072937,950.88 429.07625,950.88 C425.079563,950.88 421.761263,949.523347 419.12125,946.81 C416.517904,944.096653 415.21625,940.668354 415.21625,936.525 Z M420.27625,936.525 C420.27625,939.421681 421.119575,941.768324 422.80625,943.565 C424.492925,945.361676 426.582904,946.26 429.07625,946.26 C431.569596,946.26 433.659575,945.361676 435.34625,943.565 C437.032925,941.768324 437.87625,939.421681 437.87625,936.525 C437.87625,933.664986 437.032925,931.336676 435.34625,929.54 C433.622908,927.706658 431.532929,926.79 429.07625,926.79 C426.619571,926.79 424.529592,927.706658 422.80625,929.54 C421.119575,931.336676 420.27625,933.664986 420.27625,936.525 Z M484.915,939.495 C484.915,942.941684 483.650013,945.70999 481.12,947.8 C478.553321,949.853344 475.436685,950.88 471.77,950.88 C468.50665,950.88 465.628346,949.926676 463.135,948.02 C460.641654,946.113324 458.918338,943.510017 457.965,940.21 L462.805,938.23 C463.135002,939.403339 463.59333,940.466662 464.18,941.42 C464.76667,942.373338 465.454163,943.189163 466.2425,943.8675 C467.030837,944.545837 467.901662,945.077498 468.855,945.4625 C469.808338,945.847502 470.816661,946.04 471.88,946.04 C474.190012,946.04 476.078326,945.444173 477.545,944.2525 C479.011674,943.060827 479.745,941.47501 479.745,939.495 C479.745,937.844992 479.140006,936.433339 477.93,935.26 C476.793328,934.123328 474.666682,933.023339 471.55,931.96 C468.396651,930.823328 466.435004,930.053335 465.665,929.65 C461.484979,927.523323 459.395,924.388354 459.395,920.245 C459.395,917.348319 460.549988,914.873344 462.86,912.82 C465.206678,910.766656 468.084983,909.74 471.495,909.74 C474.501682,909.74 477.104989,910.509992 479.305,912.05 C481.505011,913.553341 482.971663,915.441655 483.705,917.715 L478.975,919.695 C478.534998,918.228326 477.664173,917.009172 476.3625,916.0375 C475.060827,915.065828 473.475009,914.58 471.605,914.58 C469.62499,914.58 467.956673,915.129994 466.6,916.23 C465.243327,917.256672 464.565,918.594992 464.565,920.245 C464.565,921.601673 465.096661,922.774995 466.16,923.765 C467.333339,924.755005 469.881647,925.928327 473.805,927.285 C477.801687,928.641673 480.652491,930.300824 482.3575,932.2625 C484.062509,934.224176 484.915,936.634986 484.915,939.495 Z M496.059375,910.62 L496.059375,950 L490.999375,950 L490.999375,910.62 L496.059375,910.62 Z M509.62375,913.755 C509.62375,914.745005 509.27542,915.58833 508.57875,916.285 C507.88208,916.98167 507.038755,917.33 506.04875,917.33 C505.058745,917.33 504.21542,916.98167 503.51875,916.285 C502.82208,915.58833 502.47375,914.745005 502.47375,913.755 C502.47375,912.764995 502.82208,911.92167 503.51875,911.225 C504.21542,910.52833 505.058745,910.18 506.04875,910.18 C507.038755,910.18 507.88208,910.52833 508.57875,911.225 C509.27542,911.92167 509.62375,912.764995 509.62375,913.755 Z M508.57875,923.05 L508.57875,950 L503.51875,950 L503.51875,923.05 L508.57875,923.05 Z M527.863125,946.26 C530.356471,946.26 532.39145,945.361676 533.968125,943.565 C535.618133,941.768324 536.443125,939.421681 536.443125,936.525 C536.443125,933.701653 535.618133,931.373343 533.968125,929.54 C532.354784,927.706658 530.319804,926.79 527.863125,926.79 C525.443113,926.79 523.408133,927.706658 521.758125,929.54 C520.108117,931.373343 519.283125,933.701653 519.283125,936.525 C519.283125,939.385014 520.108117,941.713324 521.758125,943.51 C523.408133,945.343342 525.443113,946.26 527.863125,946.26 Z M527.038125,950.88 C523.518107,950.88 520.493138,949.486681 517.963125,946.7 C515.469779,943.876653 514.223125,940.48502 514.223125,936.525 C514.223125,932.56498 515.469779,929.173347 517.963125,926.35 C520.493138,923.563319 523.518107,922.17 527.038125,922.17 C529.018135,922.17 530.82395,922.591662 532.455625,923.435 C534.0873,924.278338 535.343121,925.39666 536.223125,926.79 L536.443125,926.79 L536.223125,923.05 L536.223125,910.62 L541.283125,910.62 L541.283125,950 L536.443125,950 L536.443125,946.26 L536.223125,946.26 C535.343121,947.65334 534.0873,948.771662 532.455625,949.615 C530.82395,950.458338 529.018135,950.88 527.038125,950.88 Z M560.1275,950.88 C556.16748,950.88 552.90418,949.523347 550.3375,946.81 C547.770821,944.096653 546.4875,940.668354 546.4875,936.525 C546.4875,932.418313 547.734154,928.99918 550.2275,926.2675 C552.720846,923.53582 555.910814,922.17 559.7975,922.17 C563.794187,922.17 566.974988,923.462487 569.34,926.0475 C571.705012,928.632513 572.8875,932.25331 572.8875,936.91 L572.8325,937.46 L551.6575,937.46 C551.730834,940.100013 552.610825,942.226659 554.2975,943.84 C555.984175,945.453341 558.000822,946.26 560.3475,946.26 C563.574183,946.26 566.104157,944.646683 567.9375,941.42 L572.4475,943.62 C571.237494,945.893345 569.560011,947.67166 567.415,948.955 C565.269989,950.23834 562.840847,950.88 560.1275,950.88 Z M552.0425,933.28 L567.4975,933.28 C567.350833,931.409991 566.590007,929.860839 565.215,928.6325 C563.839993,927.404161 561.997512,926.79 559.6875,926.79 C557.780824,926.79 556.140007,927.376661 554.765,928.55 C553.389993,929.723339 552.482502,931.29999 552.0425,933.28 Z M599.266875,942.52 C599.266875,944.866678 598.240219,946.846659 596.186875,948.46 C594.133531,950.073341 591.548557,950.88 588.431875,950.88 C585.718528,950.88 583.335219,950.174174 581.281875,948.7625 C579.228531,947.350826 577.761879,945.490012 576.881875,943.18 L581.391875,941.255 C582.051878,942.868341 583.014369,944.124162 584.279375,945.0225 C585.544381,945.920838 586.928534,946.37 588.431875,946.37 C590.045216,946.37 591.392703,946.02167 592.474375,945.325 C593.556047,944.62833 594.096875,943.803338 594.096875,942.85 C594.096875,941.126658 592.776888,939.861671 590.136875,939.055 L585.516875,937.9 C580.273515,936.579993 577.651875,934.050019 577.651875,930.31 C577.651875,927.853321 578.651032,925.882507 580.649375,924.3975 C582.647718,922.912493 585.205193,922.17 588.321875,922.17 C590.70522,922.17 592.859365,922.738328 594.784375,923.875 C596.709385,925.011672 598.056871,926.533324 598.826875,928.44 L594.316875,930.31 C593.803539,929.173328 592.969381,928.28417 591.814375,927.6425 C590.659369,927.00083 589.366882,926.68 587.936875,926.68 C586.616868,926.68 585.43438,927.009997 584.389375,927.67 C583.34437,928.330003 582.821875,929.136662 582.821875,930.09 C582.821875,931.630008 584.270194,932.729997 587.166875,933.39 L591.236875,934.435 C596.590235,935.755007 599.266875,938.44998 599.266875,942.52 Z" id="Sync-to-Slides"></path>
        </g>
    </g>
</svg>