<?xml version="1.0" encoding="UTF-8"?>
<svg width="16px" height="17px" viewBox="0 0 16 17" version="1.1" xmlns="http://www.w3.org/2000/svg" xmlns:xlink="http://www.w3.org/1999/xlink">
    <!-- Generator: Sketch 42 (36781) - http://www.bohemiancoding.com/sketch -->
    <title>reverse-alphabetical</title>
    <desc>Created with Sketch.</desc>
    <defs>
        <polygon id="path-1" points="0 0 24 0 24 24 0 24"></polygon>
    </defs>
    <g id="Page-1" stroke="none" stroke-width="1" fill="none" fill-rule="evenodd">
        <g id="09.-Icons" transform="translate(-325.000000, -170.000000)">
            <g id="reverse-alphabetical" transform="translate(322.000000, 166.000000)">
                <g id="Group">
                    <mask id="mask-2" fill="white">
                        <use xlink:href="#path-1"></use>
                    </mask>
                    <g id="Shape"></g>
                    <path d="M7,21 L3,17.01 L6,17.01 L6,4 L8,4 L8,17.01 L11,17.01 L7,21 Z M15.1411126,15 L16.5576662,15 L18.6824966,21 L17.3229308,21 L16.936228,19.7666214 L14.7259159,19.7666214 L14.3107191,21 L13,21 L15.1411126,15 Z M15.063772,18.7327001 L16.5861601,18.7327001 L15.8371777,16.3717775 L15.063772,18.7327001 Z M13,9.29206626 L16.3173496,5.13775065 L13.0828248,5.13775065 L13.0828248,4 L17.9912816,4 L17.9912816,5.07672188 L14.63034,9.29206626 L18,9.29206626 L18,10.4254577 L13,10.4254577 L13,9.29206626 Z" id="Combined-Shape" fill="#757575" fill-rule="nonzero" mask="url(#mask-2)"></path>
                </g>
            </g>
        </g>
    </g>
</svg>